<svg xmlns="http://www.w3.org/2000/svg" viewBox="0 0 4500 4500">
  <circle fill="#2E313D" cx="2250" cy="2250" r="2250"/>
  <path fill="#F3D2BC" d="M1884 2574v393l383 309 375-351v-366l-758 15zm0 0z"/>
  <path fill="#E6E6E5" d="M669 3851c407 401 965 649 1581 649 625 0 1190-255 1598-666 4-187 8-432-56-506-80-94-1138-403-1138-403l-404 191-387-191S805 3234 725 3328c-65 76-60 334-56 523z"/>
  <path fill="#C59C6D" d="M3172 1225c0 879-366 879-818 879h-179c-452 0-818 0-818-879 0-243 56-551 239-622 200-78 60-258 579-258h179c452 0 818 394 818 880z"/>
  <path fill="#E4C4B1" fill-opacity=".5" d="M2642 2681v87s-401 244-622 333h-136v-397l758-23z"/>
  <path fill="#F3D2BC" d="M2514 763h-528c-263 0-476 242-476 541l28 774c0 288 432 627 698 650v1c5 0 9-1 14-1 4 0 9 1 13 1v-1c266-23 699-362 699-650l27-774c0-299-213-541-475-541z"/>
  <path fill="#F3D2BC" d="M3204 1835c0 63-100 150-164 150h-70c-64 0 0-73 0-136l30-233c0-64 58-165 122-165 63 0 115 52 115 115l-33 269zm-1869 0c0 63 100 150 164 150h70c63 0 0-73 0-136l-30-233c0-64-58-165-122-165-63 0-115 52-115 115l33 269z"/>
  <path fill="#C59C6D" d="M2900 1067c91 118 48 532 77 731 0 0 68-293 77-376v-252l-112-340-403-110h-748l-244 182-84 324 47 583s0-327 140-522c84-116 161-278 169-385 0 0 230 144 1081 165zm0 0zM2965 1996s-149 563-700 563c-552 0-730-563-730-563-25 966 730 842 730 842-12 1 724 26 700-842z"/>
  <path fill="#C59C6D" d="M2259 2154c-69 5-395-76-391 233 0 0 21-153 183-116 83 18 92 34 208-27v-90zm0 0c69 5 394-76 391 233 0 0-22-153-183-116-83 18-93 34-208-27v-90zm0 0z"/>
  <g fill="#F3F3F3">
    <path d="M2250 3116s-362-182-425-214l-218 112 285 481 358-379zM2250 3116s363-182 425-214l218 112-300 481-343-379z"/>
  </g>
  <path fill="#E0AF8D" d="M2125 2029s17 8 38 18c6 2 11 5 17 7l18 6c6 3 13 3 19 5 6 1 12 2 18 2 6 1 12-1 18-1s11-3 17-4l18-6c5-2 11-6 16-8 11-4 19-10 26-13 7-4 12-6 12-6s-1 5-4 12c-2 7-5 19-13 30-5 5-8 12-14 17-6 6-13 11-21 16-8 4-16 10-26 12s-20 4-31 3c-10 1-20-2-30-5-9-3-18-7-25-12-8-4-14-10-20-15-6-6-10-12-14-17-16-22-19-41-19-41z"/>
  <path fill="#29252A" d="M1959 2341l25 13c8 4 18 8 29 13s24 10 37 15c14 6 28 11 44 16 15 5 32 8 49 13 17 3 34 8 51 9l27 3h27c18 2 35-2 53-3s35-6 52-9c16-4 32-10 48-14s29-11 43-16 27-9 37-15c11-6 21-10 29-14 17-7 27-11 27-11s-6 9-17 24c-6 7-12 16-21 25-8 11-19 20-31 30-13 10-25 22-41 31-17 9-34 19-53 27-9 3-19 7-29 10-11 3-21 7-32 8-21 3-43 8-65 6l-34-1c-11-1-22-4-32-6-11-1-21-4-31-7-11-4-20-7-30-10-18-9-37-16-52-27-8-5-16-9-23-14l-19-16c-13-10-23-21-32-30-8-9-15-18-21-25-11-15-15-25-15-25z"/>
  <circle fill="#29252A" cx="2616" cy="1552" r="105"/>
  <circle fill="#29252A" cx="1906" cy="1552" r="105"/>
</svg>
