<svg xmlns="http://www.w3.org/2000/svg" xmlns:xlink="http://www.w3.org/1999/xlink" width="792" height="612" viewBox="0 0 792 612">
  <defs>
    <circle id="a" cx="395.938" cy="305.158" r="85.414"/>
  </defs>
  <use xlink:href="#a" overflow="visible" fill="#2E313D"/>
  <clipPath id="b">
    <use xlink:href="#a" overflow="visible"/>
  </clipPath>
  <g clip-path="url(#b)">
    <path fill="#C59C6D" d="M430.952 266.236c0 33.398-13.905 33.398-31.063 33.398h-6.804c-17.155 0-31.063 0-31.063-33.398 0-9.223 2.132-20.92 9.1-23.616 7.597-2.94 2.27-9.782 21.963-9.782h6.803c17.157 0 31.062 14.953 31.062 33.398z"/>
    <path fill="#F3D2BC" d="M382.055 317.47v14.923l14.526 11.724 14.254-13.323v-13.91"/>
    <path opacity=".5" fill="#E4C4B1" d="M410.834 321.52v3.287s-15.25 9.274-23.63 12.66h-5.15v-15.06l28.78-.887z"/>
    <path fill="#F3D2BC" d="M405.947 248.72h-20.032c-9.97 0-18.053 9.194-18.053 20.534l1.046 29.36c0 10.96 16.41 23.82 26.51 24.67v.048c.167 0 .342-.014.514-.02.17.006.346.02.513.02v-.047c10.1-.85 26.51-13.71 26.51-24.672l1.045-29.36c0-11.34-8.083-20.534-18.053-20.534z"/>
    <g fill="#F3D2BC">
      <path d="M432.152 289.4c0 2.41-3.807 5.685-6.218 5.685h-2.664c-2.412 0 0-2.74 0-5.15l1.148-8.85c0-2.41 2.2-6.252 4.61-6.252 2.412 0 4.367 1.954 4.367 4.365l-1.243 10.202zM361.197 289.4c0 2.41 3.807 5.685 6.218 5.685h2.665c2.41 0 0-2.74 0-5.15l-1.15-8.85c0-2.41-2.2-6.252-4.61-6.252s-4.365 1.954-4.365 4.365l1.242 10.202z"/>
    </g>
    <path fill="#C59C6D" d="M420.605 260.24c3.462 4.504 1.846 20.19 2.917 27.744 0 0 2.602-11.11 2.952-14.273v-9.562l-4.276-12.88-15.272-4.175h-28.424l-9.238 6.883-3.203 12.305 1.803 22.125s-.02-12.386 5.31-19.815c3.162-4.406 6.106-10.543 6.396-14.613-.003 0 8.75 5.464 41.035 6.264"/>
    <g fill="#C59C6D">
      <path d="M423.084 295.526s-5.676 21.358-26.595 21.358-27.69-21.358-27.69-21.358c-.938 36.663 27.69 31.95 27.69 31.95-.425.05 27.51.983 26.594-31.95z"/>
      <path d="M396.267 301.506c-2.617.2-14.98-2.863-14.84 8.837 0 0 .805-5.784 6.947-4.407 3.146.706 3.508 1.31 7.893-1.006M396.267 301.506c2.62.2 14.98-2.863 14.84 8.837 0 0-.804-5.784-6.946-4.407-3.146.706-3.506 1.31-7.893-1.006"/>
    </g>
    <g>
      <path fill="#E6E6E5" d="M454.476 346.072c-3.043-3.554-43.187-15.278-43.187-15.278l-15.345 7.23-14.7-7.23s-40.144 11.725-43.187 15.278-2.05 17.41-2.05 24.16.253 20.964.253 20.964L405 393l-.297-1.804h51.57s.252-14.213.252-20.964c0-6.75.994-20.606-2.05-24.16z"/>
      <g fill="#F3F3F3">
        <path d="M395.945 338.025s-13.763-6.89-16.145-8.107l-8.282 4.228 10.84 18.287 13.587-14.408z"/>
        <path d="M395.938 338.025s13.763-6.89 16.144-8.107l8.283 4.228-11.408 18.287-13.02-14.408z"/>
      </g>
    </g>
  </g>
  <path fill="#E0AF8D" d="M391.188 296.78s.64.292 1.446.667c.212.077.423.186.652.263.223.095.455.174.69.245.23.087.47.118.7.183.233.018.462.088.688.065.228.036.446-.02.67-.03.227-.017.442-.11.674-.14.22-.08.438-.173.66-.243.218-.088.42-.206.623-.293.416-.168.73-.403 1-.52.26-.128.428-.196.428-.196s-.03.168-.122.45c-.108.272-.208.712-.53 1.115-.153.21-.303.457-.522.67-.232.202-.48.425-.77.618-.318.15-.64.352-1.017.434-.375.09-.765.165-1.158.134-.4.006-.772-.096-1.135-.194-.344-.13-.686-.268-.963-.46-.29-.178-.54-.38-.755-.592-.227-.197-.387-.435-.55-.63-.603-.835-.71-1.543-.71-1.543z"/>
  <g>
    <path fill="#29252A" d="M384.878 308.63l.97.468c.297.155.688.3 1.093.503.433.17.896.386 1.417.572.513.205 1.067.406 1.66.586.573.224 1.216.326 1.84.524.65.087 1.294.3 1.97.33.336.038.673.068 1.01.118l1.016.005c.682.073 1.35-.092 2.02-.108.67-.068 1.312-.254 1.96-.345.63-.16 1.233-.378 1.83-.532.6-.15 1.116-.443 1.642-.62.515-.202 1.02-.354 1.416-.58.408-.207.785-.368 1.096-.507.622-.275 1.01-.414 1.01-.414s-.21.33-.636.878c-.214.27-.473.61-.796.975-.302.393-.718.746-1.184 1.13-.478.366-.957.84-1.573 1.176-.615.332-1.26.722-1.978 1.02-.367.134-.746.253-1.13.376-.39.112-.77.28-1.186.313-.82.108-1.654.292-2.5.234l-1.265-.043c-.415-.057-.825-.14-1.23-.212-.41-.06-.808-.155-1.186-.295-.383-.123-.76-.245-1.124-.378-.7-.334-1.395-.612-1.977-1.01-.295-.19-.585-.365-.854-.553l-.744-.587c-.477-.37-.85-.79-1.194-1.13-.33-.362-.6-.686-.804-.973-.42-.556-.59-.923-.59-.923z"/>
  </g>
  <circle fill="#29252A" cx="409.826" cy="278.668" r="4"/>
  <circle fill="#29252A" cx="382.879" cy="278.668" r="4"/>
</svg>
